<svg id="Capa_1" data-name="Capa 1" xmlns="http://www.w3.org/2000/svg" viewBox="0 0 95.3 75.8"><path d="M22.2,12.1A9.54,9.54,0,0,0,12.9,22c.2,5-.1,11.4-1.7,16.6s-4.4,8.6-8.8,9v4.8c4.5.4,7.2,3.8,8.8,9S13,73.1,12.9,78a9.42,9.42,0,0,0,9.3,9.9H77.9A9.54,9.54,0,0,0,87.2,78c-.2-5,.1-11.4,1.7-16.6s4.4-8.6,8.8-9V47.6c-4.5-.4-7.2-3.8-8.8-9S87.1,26.9,87.2,22a9.42,9.42,0,0,0-9.3-9.9ZM66.9,58.8c0,7.1-5.3,11.4-14.1,11.4h-15a1.58,1.58,0,0,1-1.6-1.6h0V31.4a1.58,1.58,0,0,1,1.6-1.6H52.7c7.3,0,12.1,4,12.1,10.1a9,9,0,0,1-7.4,8.8v.2c5.8.6,9.5,4.5,9.5,9.9ZM51.2,34.9H42.7V47h7.2c5.6,0,8.6-2.2,8.6-6.2,0-3.8-2.6-5.9-7.3-5.9ZM42.7,51.8V65.1h8.8c5.8,0,8.8-2.3,8.8-6.7s-3.1-6.6-9.2-6.6Z" transform="translate(-2.4 -12.1)" fill="#69008e" fill-rule="evenodd"/></svg>