<?xml version="1.0" encoding="utf-8"?>
<!-- Generator: Adobe Illustrator 24.1.0, SVG Export Plug-In . SVG Version: 6.00 Build 0)  -->
<svg version="1.1" id="Capa_1" xmlns="http://www.w3.org/2000/svg" xmlns:xlink="http://www.w3.org/1999/xlink" x="0px" y="0px"
	 viewBox="0 0 448 512" style="enable-background:new 0 0 448 512;" xml:space="preserve">
<style type="text/css">
	.st0{fill:#FFFFFF;}
</style>
<g>
	<path class="st0" d="M262.8,256L435.5,83.4c10.7-10.7,10.7-28.1,0-38.8c-10.7-10.7-28.1-10.7-38.8,0l0,0L224,217.2L51.4,44.5
		c-10.7-10.7-28.1-10.7-38.8,0s-10.7,28.1,0,38.8L185.2,256L12.5,428.6c-10.7,10.7-10.7,28.1,0,38.8s28.1,10.7,38.8,0L224,294.8
		l172.6,172.7c10.7,10.7,28.1,10.7,38.8,0c10.7-10.7,10.7-28.1,0-38.8L262.8,256z"/>
</g>
</svg>
