<svg id="Capa_1" data-name="Capa 1" xmlns="http://www.w3.org/2000/svg" viewBox="0 0 75.4 100"><path d="M50.3,100,19.5,91.5l-6.9-77H88l-6.9,77L50.3,100Z" transform="translate(-12.6 0)" fill="#69008e"/><polygon points="37.72 18.34 37.72 96.12 37.79 96.14 64.55 88.94 70.73 18.34 37.72 18.34" fill="#69008e"/><path d="M29,49.7l.8,8.4H48.6V49.7Zm-1.6-17,.8,8.4H48.5V32.7ZM48.5,71.6h0l-9.4-2.5-.6-6.7H30l1.2,13.2,17.2,4.8h0l.1-8.8Z" transform="translate(-12.6 0)" fill="#170c18"/><path d="M30.7,0H40.9V4.3H35V8.6h5.9v4.3H30.7ZM43,0H53.2V3.7H47.3v.7h5.9V13H43V9.1h5.9V8.3H43V0ZM55.2,0H65.4V3.7H59.5v.7h5.9V13H55.2V9.1h5.9V8.3H55.2V0Z" transform="translate(-12.6 0)" fill="#69008e"/><path d="M68.1,49.7l1.5-17H48.5v8.4H60.4l-.8,8.6H48.5v8.4H58.9L57.9,69l-9.4,2.5v8.8l17.3-4.8.1-1.4,2-22.2.2-2.2Z" transform="translate(-12.6 0)" fill="#170c18"/></svg>