<?xml version="1.0" encoding="utf-8"?>
<!-- Generator: Adobe Illustrator 24.1.0, SVG Export Plug-In . SVG Version: 6.00 Build 0)  -->
<svg version="1.1" id="Capa_1" xmlns="http://www.w3.org/2000/svg" xmlns:xlink="http://www.w3.org/1999/xlink" x="0px" y="0px"
	 viewBox="0 0 100 100" style="enable-background:new 0 0 100 100;" xml:space="preserve">
<style type="text/css">
	.st0{fill:#FFFFFF;}
</style>
<g transform="matrix(6.66667 0 0 6.66667 -5.667 -6408.081)">
	<path class="st0" d="M2.1,964.2c-0.1,0-0.2,0-0.3,0.1l2,2.1l2.1,2.1l0,0l0.1,0.1l0.1,0.1l0.1,0.1l1.8,1.8c0,0,0.1,0.1,0.2,0.1
		c0.1,0,0.2,0.1,0.3,0.1c0.1,0,0.2,0,0.3-0.1c0.1,0,0.1-0.1,0.2-0.1l2-2.1l2.1-2.1l2-2.1c-0.1-0.1-0.3-0.1-0.4-0.1L2.1,964.2
		L2.1,964.2z M1.4,964.5c-0.2,0.2-0.4,0.5-0.4,0.9v6.9c0,0.3,0.1,0.5,0.2,0.7l0.3-0.3l2.1-2.1l1.9-1.8l0,0l-2.1-2.1L1.4,964.5
		L1.4,964.5z M15.2,964.5l-2,2.1l-2.1,2.1l0,0l2,1.9l2.1,2.1l0.1,0.1c0.1-0.2,0.2-0.4,0.2-0.7v-6.9C15.5,965,15.4,964.7,15.2,964.5
		L15.2,964.5z M5.9,969L4,970.9l-2.1,2.1l-0.3,0.3c0.1,0.1,0.3,0.2,0.5,0.2h12.5c0.2,0,0.4-0.1,0.6-0.2L15,973l-2.1-2.1l-2-1.9
		l-1.8,1.8C9,970.9,8.9,971,8.8,971c-0.2,0.1-0.3,0.1-0.5,0.1c-0.2,0-0.3-0.1-0.5-0.1c-0.1,0-0.1-0.1-0.2-0.1L5.9,969L5.9,969z"/>
</g>
</svg>
