<svg id="Capa_1" data-name="Capa 1" xmlns="http://www.w3.org/2000/svg" viewBox="0 0 66.8 100"><path d="M33.3,100A16.73,16.73,0,0,0,50,83.3V66.7H33.3a16.65,16.65,0,1,0,0,33.3Z" transform="translate(-16.6 0)" fill="#410058"/><path d="M16.7,50A16.73,16.73,0,0,1,33.4,33.3H50V66.6H33.3A16.5,16.5,0,0,1,16.7,50Z" transform="translate(-16.6 0)" fill="#9e04d4"/><path d="M16.7,16.7A16.64,16.64,0,0,1,33.3,0H50V33.3H33.3A16.56,16.56,0,0,1,16.7,16.7Z" transform="translate(-16.6 0)" fill="#4d0068"/><path d="M50,0H66.7a16.7,16.7,0,1,1,0,33.4H50Z" transform="translate(-16.6 0)" fill="#69008e"/><path d="M83.3,50A16.65,16.65,0,1,1,66.7,33.3,16.73,16.73,0,0,1,83.3,50Z" transform="translate(-16.6 0)" fill="#8a03b9"/></svg>