<svg id="Capa_1" data-name="Capa 1" xmlns="http://www.w3.org/2000/svg" viewBox="0 0 98.66 98.75"><path d="M97.1,45.6,54.1,2.5a6.34,6.34,0,0,0-9,0h0l-8.9,8.9L47.5,22.7a7.55,7.55,0,0,1,9.6,9.6L68,43.4a7.6,7.6,0,0,1,7.8,1.8,7.49,7.49,0,0,1,0,10.7h0a7.49,7.49,0,0,1-10.7,0,7.39,7.39,0,0,1-1.6-8.2L53.2,37.4V64.2a9,9,0,0,1,2,1.4,7.49,7.49,0,0,1,0,10.7h0A7.57,7.57,0,0,1,44.5,65.6,8.52,8.52,0,0,1,47,63.9V37a7,7,0,0,1-2.5-1.7A7.55,7.55,0,0,1,42.9,27L31.7,15.9,2.2,45.4a6.34,6.34,0,0,0,0,9h0L45.3,97.5a6.34,6.34,0,0,0,9,0L97.2,54.6a6.43,6.43,0,0,0-.1-9" transform="translate(-0.33 -0.63)" fill="#69008e"/></svg>