<svg id="Capa_1" data-name="Capa 1" xmlns="http://www.w3.org/2000/svg" viewBox="0 0 98 95.67"><path d="M49.8,4.2A49,49,0,0,0,34.3,99.7c2.4.5,3.3-1.1,3.3-2.4s0-5-.1-9.1C23.9,91.2,21,82.4,21,82.4c-2.2-5.7-5.4-7.2-5.4-7.2-4.4-3,.3-3,.3-3,4.9.3,7.5,5,7.5,5,4.4,7.5,11.5,5.3,14.3,4.1a10.5,10.5,0,0,1,3.1-6.6c-10.8-1.1-22.3-5.3-22.3-24a19.43,19.43,0,0,1,5-13.2c-.5-1.2-2.2-6.2.5-13,0,0,4.1-1.3,13.5,5a45.61,45.61,0,0,1,12.3-1.6,50,50,0,0,1,12.3,1.6c9.4-6.3,13.5-5,13.5-5,2.7,6.7,1,11.7.5,13a19.06,19.06,0,0,1,5,13.2c0,18.8-11.5,23-22.4,24.2C60.5,76.4,62,79.4,62,84c0,6.6-.1,11.8-.1,13.4,0,1.3.9,2.8,3.4,2.4A49.07,49.07,0,0,0,49.8,4.2" transform="translate(-0.8 -4.2)" fill="#69008e"/><path d="M19.1,74a.59.59,0,0,1-.8.1c-.4-.2-.6-.5-.4-.7s.5-.3.8-.2.6.6.4.8m2.5,2.2c-.2.2-.7.1-1-.2s-.4-.8-.1-1,.7-.1,1,.2a.92.92,0,0,1,.1,1m1.6,2.7c-.3.2-.8,0-1.1-.4s-.3-1,0-1.2.8,0,1.1.4.3,1,0,1.2M26,82.1c-.3.3-.8.2-1.3-.2a1.15,1.15,0,0,1-.3-1.3c.3-.3.8-.2,1.3.2s.6,1,.3,1.3m3.6,1.1c-.1.4-.7.6-1.2.4s-.9-.6-.8-1,.7-.6,1.2-.4a.88.88,0,0,1,.8,1m4.1.4c0,.4-.5.7-1,.7s-1.1-.3-1.1-.7.5-.7,1-.7c.7,0,1.1.3,1.1.7m4.1-.1c.1.4-.3.8-.9.9s-1.1-.1-1.2-.5.3-.8.9-.9a.89.89,0,0,1,1.2.5" transform="translate(-0.8 -4.2)" fill="#69008e"/></svg>