<?xml version="1.0" encoding="utf-8"?>
<!-- Generator: Adobe Illustrator 24.1.0, SVG Export Plug-In . SVG Version: 6.00 Build 0)  -->
<svg version="1.1" id="Capa_1" xmlns="http://www.w3.org/2000/svg" xmlns:xlink="http://www.w3.org/1999/xlink" x="0px" y="0px"
	 viewBox="0 0 100 100" style="enable-background:new 0 0 100 100;" xml:space="preserve">
<style type="text/css">
	.st0{fill:#FFFFFF;}
</style>
<g>
	<path class="st0" d="M49.8,4.2c-27.1,0-49,21.9-49,49c0,21.6,14,40,33.5,46.5c2.4,0.5,3.3-1.1,3.3-2.4c0-1.2,0-5-0.1-9.1
		c-13.6,3-16.5-5.8-16.5-5.8c-2.2-5.7-5.4-7.2-5.4-7.2c-4.4-3,0.3-3,0.3-3c4.9,0.3,7.5,5,7.5,5c4.4,7.5,11.5,5.3,14.3,4.1
		c0.4-3.2,1.7-5.3,3.1-6.6c-10.8-1.1-22.3-5.3-22.3-24c0-5.3,1.9-9.7,5-13.2c-0.5-1.2-2.2-6.2,0.5-13c0,0,4.1-1.3,13.5,5
		c3.9-1.1,8.1-1.6,12.3-1.6s8.4,0.6,12.3,1.6c9.4-6.3,13.5-5,13.5-5c2.7,6.7,1,11.7,0.5,13c3.1,3.4,5,7.8,5,13.2
		c0,18.8-11.5,23-22.4,24.2c1.8,1.5,3.3,4.5,3.3,9.1c0,6.6-0.1,11.8-0.1,13.4c0,1.3,0.9,2.8,3.4,2.4C84.8,93.3,98.8,75,98.8,53.3
		C98.8,26.1,76.9,4.2,49.8,4.2"/>
	<path class="st0" d="M19.1,74c-0.1,0.2-0.5,0.3-0.8,0.1c-0.4-0.2-0.6-0.5-0.4-0.7c0.1-0.3,0.5-0.3,0.8-0.2
		C19.1,73.4,19.3,73.8,19.1,74 M21.6,76.2c-0.2,0.2-0.7,0.1-1-0.2c-0.3-0.3-0.4-0.8-0.1-1c0.2-0.2,0.7-0.1,1,0.2
		C21.7,75.5,21.8,75.9,21.6,76.2 M23.2,78.9c-0.3,0.2-0.8,0-1.1-0.4c-0.3-0.4-0.3-1,0-1.2s0.8,0,1.1,0.4
		C23.5,78.2,23.5,78.7,23.2,78.9 M26,82.1c-0.3,0.3-0.8,0.2-1.3-0.2c-0.4-0.4-0.5-1-0.3-1.3c0.3-0.3,0.8-0.2,1.3,0.2
		C26.2,81.2,26.3,81.8,26,82.1 M29.6,83.2c-0.1,0.4-0.7,0.6-1.2,0.4c-0.6-0.2-0.9-0.6-0.8-1s0.7-0.6,1.2-0.4
		C29.4,82.3,29.7,82.8,29.6,83.2 M33.7,83.6c0,0.4-0.5,0.7-1,0.7c-0.6,0-1.1-0.3-1.1-0.7c0-0.4,0.5-0.7,1-0.7
		C33.3,82.9,33.7,83.2,33.7,83.6 M37.8,83.5c0.1,0.4-0.3,0.8-0.9,0.9c-0.6,0.1-1.1-0.1-1.2-0.5c-0.1-0.4,0.3-0.8,0.9-0.9
		C37.2,82.8,37.7,83.1,37.8,83.5"/>
</g>
</svg>
