<svg id="Capa_1" data-name="Capa 1" xmlns="http://www.w3.org/2000/svg" viewBox="0 0 70.9 95.37"><polygon points="6.5 87.37 0 15.07 70.9 15.07 64.4 87.37 35.4 95.37 6.5 87.37" fill="#69008e"/><polygon points="35.4 20.25 35.4 90.17 35.46 90.19 59.52 83.72 65.08 20.25 35.4 20.25" fill="#69008e"/><polygon points="35.4 47.77 23.7 47.77 22.9 38.67 35.4 38.67 35.4 29.77 35.4 29.77 13.2 29.77 13.4 32.17 15.6 56.67 35.4 56.67 35.4 47.77" fill="#170c18"/><polygon points="35.4 70.77 35.4 70.77 25.5 68.17 24.9 61.07 20.1 61.07 16 61.07 17.2 74.97 35.4 80.07 35.4 79.97 35.4 70.77" fill="#170c18"/><polygon points="35.4 47.77 35.4 56.67 46.3 56.67 45.3 68.17 35.4 70.77 35.4 80.07 53.6 74.97 53.7 73.47 55.8 50.17 56 47.77 53.6 47.77 35.4 47.77" fill="#170c18"/><polygon points="35.4 29.77 35.4 35.27 35.4 38.67 35.4 38.67 56.8 38.67 56.8 38.67 56.8 38.67 57 36.67 57.4 32.17 57.6 29.77 35.4 29.77" fill="#170c18"/><path d="M21.75,4.63h4.5v4.5h4.1V4.63h4.5v13.5h-4.5v-4.5h-4.1v4.5h-4.5V4.63Z" transform="translate(-15.2 -4.63)" fill="#69008e"/><path d="M40.85,9.13h-4V4.63h12.4v4.5h-4v9h-4.5l.1-9Z" transform="translate(-15.2 -4.63)" fill="#69008e"/><path d="M51.25,4.63H56l2.9,4.7,2.9-4.7h4.7v13.5H62v-6.7l-3.1,4.8h-.1l-3.1-4.8v6.7h-4.4V4.63Z" transform="translate(-15.2 -4.63)" fill="#69008e"/><path d="M68.75,4.63h4.5v9h6.3v4.5H68.75Z" transform="translate(-15.2 -4.63)" fill="#69008e"/></svg>