<svg id="Capa_1" data-name="Capa 1" xmlns="http://www.w3.org/2000/svg" viewBox="0 0 97.1 94.7"><path d="M18.3,3H81A17.2,17.2,0,0,1,98.2,20.2V80.5A17.2,17.2,0,0,1,81,97.7H18.3A17.26,17.26,0,0,1,1.1,80.5V20.2A17.2,17.2,0,0,1,18.3,3Z" transform="translate(-1.1 -3)" fill="#69008e"/><path d="M48.1,59.8h-15L30,69.3a.76.76,0,0,1-.8.6H21.6c-.4,0-.6-.2-.4-.7l13-37.5a9.29,9.29,0,0,1,.4-1.3,11,11,0,0,0,.2-2.6c0-.2.1-.4.3-.4H45.6c.3,0,.5.1.5.3L61,69.2c.1.4,0,.6-.4.6H52.1c-.3,0-.6-.2-.6-.4ZM35.4,51.6H45.7c-.2-.8-.6-1.9-.9-2.9s-.7-2.3-1.1-3.5-.8-2.5-1.2-3.7-.8-2.4-1.1-3.6-.6-2.2-.9-3.2h-.1A50.09,50.09,0,0,1,39,39.9c-.6,1.9-1.2,4-1.9,6a29.38,29.38,0,0,1-1.7,5.7Z" transform="translate(-1.1 -3)" fill="#170c18"/><path d="M69.8,34.1a5.43,5.43,0,0,1-3.6-1.4A5.49,5.49,0,0,1,64.8,29a4.75,4.75,0,0,1,1.5-3.6A5.43,5.43,0,0,1,69.9,24a5,5,0,0,1,3.7,1.4A4.88,4.88,0,0,1,74.9,29a5,5,0,0,1-1.4,3.7A4.68,4.68,0,0,1,69.8,34.1ZM65.3,69.3V38.1c0-.4.2-.6.5-.6h8c.4,0,.5.2.5.6V69.2c0,.4-.2.6-.5.6H65.9C65.5,69.9,65.3,69.7,65.3,69.3Z" transform="translate(-1.1 -3)" fill="#170c18"/></svg>