<?xml version="1.0" encoding="utf-8"?>
<!-- Generator: Adobe Illustrator 24.1.0, SVG Export Plug-In . SVG Version: 6.00 Build 0)  -->
<svg version="1.1" id="Capa_1" xmlns="http://www.w3.org/2000/svg" xmlns:xlink="http://www.w3.org/1999/xlink" x="0px" y="0px"
	 viewBox="0 0 100 100" style="enable-background:new 0 0 100 100;" xml:space="preserve">
<style type="text/css">
	.st0{fill:#FFFFFF;}
</style>
<g>
	<path class="st0" d="M31.6,81V39.6H17.8V81H31.6L31.6,81z M24.7,33.9c4.8,0,7.8-3.2,7.8-7.2c-0.1-4.1-3-7.2-7.7-7.2
		S17,22.6,17,26.7C17,30.7,20,33.9,24.7,33.9L24.7,33.9L24.7,33.9z M39.2,81H53V57.9c0-1.2,0.1-2.5,0.5-3.4c1-2.5,3.3-5,7.1-5
		c5,0,7,3.8,7,9.4V81h13.8V57.2c0-12.7-6.8-18.6-15.8-18.6c-7.4,0-10.7,4.2-12.5,7H53v-6H39.2C39.4,43.5,39.2,81,39.2,81L39.2,81z"
		/>
</g>
</svg>
