<?xml version="1.0" encoding="utf-8"?>
<!-- Generator: Adobe Illustrator 24.1.0, SVG Export Plug-In . SVG Version: 6.00 Build 0)  -->
<svg className="Logotipo" version="1.1" id="Capa_1" xmlns="http://www.w3.org/2000/svg" xmlns:xlink="http://www.w3.org/1999/xlink" x="0px" y="0px"
	 viewBox="0 0 200 200" style="enable-background:new 0 0 200 200;" xml:space="preserve">
<style type="text/css">
	.st0{fill:#E5E5E5;}
</style>
<path class="st0" d="M186.8,167l-34.7-25.9c2.4-3.7,4.6-7.7,6.3-11.8c3.9-9.3,5.9-19.2,5.9-29.4c0-10.2-2-20.1-5.9-29.4
	c-3.8-9-9.3-17.1-16.2-24s-15-12.4-24-16.2c-9.3-3.9-19.2-5.9-29.4-5.9c-10.2,0-20.1,2-29.4,5.9c-9,3.8-17.1,9.3-24,16.2
	c-6.9,6.9-12.4,15-16.2,24c-3.9,9.3-5.9,19.2-5.9,29.4c0,10.2,2,20.1,5.9,29.4c3.8,9,9.3,17.1,16.2,24c6.9,6.9,15,12.4,24,16.2
	c9.3,3.9,19.2,5.9,29.4,5.9c10.2,0,20.1-2,29.4-5.9c9-3.8,17.1-9.3,24-16.2c1.2-1.2,2.3-2.4,3.3-3.6l34.8,26L186.8,167z M88.8,38.3
	c33.9,0,61.5,27.6,61.5,61.5c0,12.1-3.5,23.3-9.6,32.9L83.3,89.8l-2.3-2L39.8,137c-7.9-10.3-12.5-23.2-12.5-37.2
	C27.3,65.9,54.9,38.3,88.8,38.3z M88.8,161.3c-16.2,0-31-6.3-42-16.6l11.6-13.9l19.3,14.4l6.5-8.7l-18.8-14l16.8-20.1l52,38.8
	C122.9,153.6,106.7,161.3,88.8,161.3z"/>
</svg>
