<?xml version="1.0" encoding="utf-8"?>
<!-- Generator: Adobe Illustrator 24.1.0, SVG Export Plug-In . SVG Version: 6.00 Build 0)  -->
<svg version="1.1" id="Capa_1" xmlns="http://www.w3.org/2000/svg" xmlns:xlink="http://www.w3.org/1999/xlink" x="0px" y="0px"
	 viewBox="0 0 448 512" style="enable-background:new 0 0 448 512;" xml:space="preserve">
<style type="text/css">
	.st0{fill:#F9F9F9;}
</style>
<path class="st0" d="M0,96c0-17.7,14.3-32,32-32h384c17.7,0,32,14.3,32,32c0,17.7-14.3,32-32,32H32C14.3,128,0,113.7,0,96z M0,256
	c0-17.7,14.3-32,32-32h384c17.7,0,32,14.3,32,32s-14.3,32-32,32H32C14.3,288,0,273.7,0,256z M416,448H32c-17.7,0-32-14.3-32-32
	s14.3-32,32-32h384c17.7,0,32,14.3,32,32S433.7,448,416,448z"/>
</svg>
