<svg id="Capa_1" data-name="Capa 1" xmlns="http://www.w3.org/2000/svg" viewBox="0 0 98.4 95.9"><path d="M18.5,2H82.1A17.41,17.41,0,0,1,99.5,19.4V80.5A17.41,17.41,0,0,1,82.1,97.9H18.5A17.26,17.26,0,0,1,1.1,80.6V19.4A17.41,17.41,0,0,1,18.5,2Z" transform="translate(-1.1 -2)" fill="#69008e"/><path d="M23.3,69.3V27.1c0-.3.1-.5.4-.5H26c1,0,2,0,3.1-.1s2.3,0,3.6-.1h3.7a23.38,23.38,0,0,1,8.5,1.3,13.74,13.74,0,0,1,5.5,3.4,13.52,13.52,0,0,1,3,4.7,16,16,0,0,1,.9,5.3,13.72,13.72,0,0,1-9.1,13.7A27.31,27.31,0,0,1,36,56.2H32.1V69.4a.63.63,0,0,1-.5.6h-8C23.4,69.9,23.3,69.7,23.3,69.3Zm8.9-34.7V48.4c.6,0,1.1.1,1.6.1H36a14.87,14.87,0,0,0,4.7-.7,6.94,6.94,0,0,0,3.4-2.2,6,6,0,0,0,1.3-4.2,8.08,8.08,0,0,0-.9-3.7,5.48,5.48,0,0,0-2.9-2.3,11.3,11.3,0,0,0-4.8-.8H34a5.1,5.1,0,0,0-1.8,0Z" transform="translate(-1.1 -2)" fill="#170c18"/><path d="M79.9,45.9A13,13,0,0,0,76,44.5a23.15,23.15,0,0,0-4.6-.5,10.68,10.68,0,0,0-2.5.3,2.22,2.22,0,0,0-1.3.8,2,2,0,0,0-.3,1.1,2.46,2.46,0,0,0,.4,1.1,4.86,4.86,0,0,0,1.4,1.1c.9.5,1.9.9,2.9,1.4a30.3,30.3,0,0,1,6.3,3,8.68,8.68,0,0,1,3.2,3.4,7.62,7.62,0,0,1,.9,4.2,9.81,9.81,0,0,1-1.6,5.5,10.54,10.54,0,0,1-4.6,3.7,18.16,18.16,0,0,1-7.4,1.3,35.32,35.32,0,0,1-5.6-.5A15.73,15.73,0,0,1,59,69.1a1,1,0,0,1-.5-.8V61a.4.4,0,0,1,.2-.4c.1-.1.2,0,.4,0a18.68,18.68,0,0,0,5.1,2,19.73,19.73,0,0,0,4.8.6,7.1,7.1,0,0,0,3.4-.6,1.85,1.85,0,0,0,1.1-1.7,1.94,1.94,0,0,0-1-1.6,21.74,21.74,0,0,0-4-1.9,21.32,21.32,0,0,1-5.8-3,10.46,10.46,0,0,1-3.1-3.5,7.62,7.62,0,0,1-.9-4.2,9.65,9.65,0,0,1,5.7-8.8,15.59,15.59,0,0,1,7.3-1.4,29.22,29.22,0,0,1,5.1.4,20,20,0,0,1,3.5.9c.2,0,.3.2.4.4s.1.3.1.5v6.7a.52.52,0,0,1-.2.4A2.64,2.64,0,0,1,79.9,45.9Z" transform="translate(-1.1 -2)" fill="#170c18"/></svg>