<svg id="Capa_1" data-name="Capa 1" xmlns="http://www.w3.org/2000/svg" viewBox="0 0 93 82.8"><path d="M96.5,50c0-6.2-7.7-12-19.5-15.6,2.7-12,1.5-21.6-3.8-24.7A8.48,8.48,0,0,0,69,8.6v4.2a4.77,4.77,0,0,1,2.2.5c2.6,1.5,3.7,7.1,2.8,14.3a38.87,38.87,0,0,1-1,5.6,103,103,0,0,0-12-2.1,97,97,0,0,0-7.9-9.5c6.2-5.7,12-8.9,15.9-8.9V8.6c-5.2,0-12,3.7-18.9,10.2C43.1,12.4,36.2,8.7,31,8.7v4.2c3.9,0,9.7,3.1,15.9,8.8a76.11,76.11,0,0,0-7.8,9.5,99.44,99.44,0,0,0-12,2.1c-.4-1.9-.8-3.7-1-5.5-.9-7.2.2-12.9,2.8-14.4a4.77,4.77,0,0,1,2.2-.5V8.7a7.89,7.89,0,0,0-4.3,1.1c-5.3,3.1-6.5,12.6-3.8,24.6C11.2,38.1,3.5,43.9,3.5,50S11.2,62,23,65.6c-2.7,12-1.5,21.6,3.8,24.7a8.58,8.58,0,0,0,4.3,1.1c5.2,0,12-3.7,18.9-10.2,7,6.4,13.8,10.1,19,10.1a7.89,7.89,0,0,0,4.3-1.1c5.3-3.1,6.5-12.6,3.8-24.6C88.8,62,96.5,56.1,96.5,50ZM71.8,37.4c-.7,2.4-1.6,5-2.6,7.5-.8-1.5-1.6-3-2.5-4.5s-1.8-3-2.7-4.4a63.37,63.37,0,0,1,7.8,1.4ZM63.1,57.5a81.22,81.22,0,0,1-4.6,7.2c-2.8.2-5.7.4-8.6.4a79.35,79.35,0,0,1-8.5-.4c-1.6-2.3-3.1-4.7-4.6-7.2s-2.7-5-3.9-7.5c1.2-2.5,2.5-5.1,3.9-7.6a81.22,81.22,0,0,1,4.6-7.2c2.8-.2,5.7-.4,8.6-.4a79.35,79.35,0,0,1,8.5.4c1.6,2.3,3.1,4.7,4.6,7.2s2.7,5,3.9,7.5a68,68,0,0,1-3.9,7.6Zm6.1-2.4c1,2.5,1.9,5.1,2.6,7.5q-3.75.9-7.8,1.5c.9-1.5,1.9-3,2.7-4.5a33.72,33.72,0,0,0,2.5-4.5ZM50,75.3a66.35,66.35,0,0,1-5.3-6.1c1.7.1,3.4.1,5.2.1s3.5,0,5.3-.1A63.85,63.85,0,0,1,50,75.3ZM35.9,64.1q-4-.6-7.8-1.5c.7-2.4,1.6-5,2.6-7.5.8,1.5,1.6,3,2.5,4.5S35,62.7,35.9,64.1Zm14-39.4a66.35,66.35,0,0,1,5.3,6.1c-1.7-.1-3.4-.1-5.2-.1s-3.5,0-5.3.1C46.4,28.6,48.2,26.5,49.9,24.7Zm-14,11.2c-.9,1.5-1.9,3-2.7,4.5s-1.7,3-2.5,4.5c-1-2.5-1.9-5.1-2.6-7.5q3.75-.9,7.8-1.5ZM18.8,59.6c-6.7-2.9-11-6.6-11-9.6s4.3-6.7,11-9.6c1.6-.7,3.4-1.3,5.2-1.9A85.85,85.85,0,0,0,28.3,50a101,101,0,0,0-4.2,11.5,54.06,54.06,0,0,1-5.3-1.9ZM29,86.7c-2.6-1.5-3.7-7.1-2.8-14.3a38.87,38.87,0,0,1,1-5.6,103,103,0,0,0,12,2.1,97,97,0,0,0,7.9,9.5c-6.2,5.7-12,8.9-15.9,8.9a5.8,5.8,0,0,1-2.2-.6ZM73.9,72.2c.9,7.2-.2,12.9-2.8,14.4a4.77,4.77,0,0,1-2.2.5C65,87.1,59.2,84,53,78.3a76.11,76.11,0,0,0,7.8-9.5,99.44,99.44,0,0,0,12-2.1A29.73,29.73,0,0,1,73.9,72.2Zm7.3-12.6c-1.6.7-3.4,1.3-5.2,1.9A85.85,85.85,0,0,0,71.7,50a101,101,0,0,0,4.2-11.5,54.06,54.06,0,0,1,5.3,1.9c6.7,2.9,11,6.6,11,9.6s-4.3,6.8-11,9.6Z" transform="translate(-3.5 -8.6)" fill="#69008e"/><circle cx="46.5" cy="41.4" r="8.7" fill="#69008e"/></svg>