
<svg version="1.1" id="Layer_1" xmlns="http://www.w3.org/2000/svg" xmlns:xlink="http://www.w3.org/1999/xlink" x="0px" y="0px"
	 viewBox="0 0 256 255" style="enable-background:new 0 0 256 255;" xml:space="preserve">
<linearGradient id="SVGID_1_" gradientUnits="userSpaceOnUse" x1="-826.0576" y1="664.8542" x2="-826.3226" y2="665.3224" gradientTransform="matrix(202.9347 0 0 -202.7803 167859.6562 135096.6406)">
	<stop  offset="0" style="stop-color:#FB7655"/>
	<stop  offset="0" style="stop-color:#FB7655"/>
	<stop  offset="0.41" style="stop-color:#E42B1E"/>
	<stop  offset="0.99" style="stop-color:#990000"/>
	<stop  offset="1" style="stop-color:#990000"/>
</linearGradient>
<path class="st0" d="M197.5,167.8L51.9,254.2l188.4-12.8l14.5-190L197.5,167.8z"/>
<linearGradient id="SVGID_00000159442786358981535710000013647050234279366808_" gradientUnits="userSpaceOnUse" x1="-816.0542" y1="663.7052" x2="-817.2032" y2="664.1213" gradientTransform="matrix(60.3079 0 0 -111.7781 49465.2656 74385.2422)">
	<stop  offset="0" style="stop-color:#871101"/>
	<stop  offset="0" style="stop-color:#871101"/>
	<stop  offset="0.99" style="stop-color:#911209"/>
	<stop  offset="1" style="stop-color:#911209"/>
</linearGradient>
<path style="fill:url(#SVGID_00000159442786358981535710000013647050234279366808_);" d="M240.7,241.3l-16.2-111.8l-44.1,58.2
	L240.7,241.3z"/>
<linearGradient id="SVGID_00000014600972641150642390000015201000564064876432_" gradientUnits="userSpaceOnUse" x1="-825.8295" y1="647.0679" x2="-826.1975" y2="649.1829" gradientTransform="matrix(188.3195 0 0 -21.9864 155715.0938 14506.8623)">
	<stop  offset="0" style="stop-color:#871101"/>
	<stop  offset="0" style="stop-color:#871101"/>
	<stop  offset="0.99" style="stop-color:#911209"/>
	<stop  offset="1" style="stop-color:#911209"/>
</linearGradient>
<path style="fill:url(#SVGID_00000014600972641150642390000015201000564064876432_);" d="M240.9,241.3l-118.6-9.3l-69.7,22
	L240.9,241.3z"/>
<linearGradient id="SVGID_00000181767673703951632270000017981641830172406955_" gradientUnits="userSpaceOnUse" x1="-817.7588" y1="663.6846" x2="-817.5941" y2="662.9656" gradientTransform="matrix(65.2221 0 0 -97.0999 53385.7383 64607.5859)">
	<stop  offset="0" style="stop-color:#FFFFFF"/>
	<stop  offset="0" style="stop-color:#FFFFFF"/>
	<stop  offset="0.23" style="stop-color:#E57252"/>
	<stop  offset="0.46" style="stop-color:#DE3B20"/>
	<stop  offset="0.99" style="stop-color:#A60003"/>
	<stop  offset="1" style="stop-color:#A60003"/>
</linearGradient>
<path style="fill:url(#SVGID_00000181767673703951632270000017981641830172406955_);" d="M52.7,254l29.6-97.1l-65.2,13.9L52.7,254z"
	/>
<linearGradient id="SVGID_00000115474233531248404500000000756951930353156256_" gradientUnits="userSpaceOnUse" x1="-822.648" y1="663.9797" x2="-822.6105" y2="663.3127" gradientTransform="matrix(105.3202 0 0 -106.8253 86765.125 71028.5469)">
	<stop  offset="0" style="stop-color:#FFFFFF"/>
	<stop  offset="0" style="stop-color:#FFFFFF"/>
	<stop  offset="0.23" style="stop-color:#E4714E"/>
	<stop  offset="0.56" style="stop-color:#BE1A0D"/>
	<stop  offset="0.99" style="stop-color:#A80D00"/>
	<stop  offset="1" style="stop-color:#A80D00"/>
</linearGradient>
<path style="fill:url(#SVGID_00000115474233531248404500000000756951930353156256_);" d="M180.4,188.1L153.1,81.2l-78,73.2
	L180.4,188.1z"/>
<linearGradient id="SVGID_00000109708299359263055100000010298186715429923515_" gradientUnits="userSpaceOnUse" x1="-821.82" y1="661.641" x2="-821.6944" y2="660.8721" gradientTransform="matrix(94.3212 0 0 -66.4185 77704.2969 43978.0273)">
	<stop  offset="0" style="stop-color:#FFFFFF"/>
	<stop  offset="0" style="stop-color:#FFFFFF"/>
	<stop  offset="0.18" style="stop-color:#E46342"/>
	<stop  offset="0.4" style="stop-color:#C82410"/>
	<stop  offset="0.99" style="stop-color:#A80D00"/>
	<stop  offset="1" style="stop-color:#A80D00"/>
</linearGradient>
<path style="fill:url(#SVGID_00000109708299359263055100000010298186715429923515_);" d="M248.7,82.7l-73.8-60.3l-20.5,66.4
	L248.7,82.7z"/>
<linearGradient id="SVGID_00000057148062359556287730000014942809200097468816_" gradientUnits="userSpaceOnUse" x1="-819.1211" y1="650.4623" x2="-818.3995" y2="651.5129" gradientTransform="matrix(70.7666 0 0 -24.3007 58119.4961 15821.5391)">
	<stop  offset="0" style="stop-color:#FFFFFF"/>
	<stop  offset="0" style="stop-color:#FFFFFF"/>
	<stop  offset="0.54" style="stop-color:#C81F11"/>
	<stop  offset="0.99" style="stop-color:#BF0905"/>
	<stop  offset="1" style="stop-color:#BF0905"/>
</linearGradient>
<path style="fill:url(#SVGID_00000057148062359556287730000014942809200097468816_);" d="M214.2,1l-43.4,24L143.4,0.7L214.2,1z"/>
<linearGradient id="SVGID_00000059307067501723083690000009331163685145179808_" gradientUnits="userSpaceOnUse" x1="-785.0073" y1="662.1172" x2="-784.7761" y2="661.538" gradientTransform="matrix(18.1773 0 0 -72.6448 14274.3252 48245.4688)">
	<stop  offset="0" style="stop-color:#FFFFFF"/>
	<stop  offset="0" style="stop-color:#FFFFFF"/>
	<stop  offset="0.31" style="stop-color:#DE4024"/>
	<stop  offset="0.99" style="stop-color:#BF190B"/>
	<stop  offset="1" style="stop-color:#BF190B"/>
</linearGradient>
<path style="fill:url(#SVGID_00000059307067501723083690000009331163685145179808_);" d="M0,203.4l18.2-33.2L3.5,130.7L0,203.4z"/>
<path class="st8" d="M2.5,129.5l14.8,42L81.6,157L155,88.8L175.7,23L143.1,0L87.6,20.8C70.1,37,36.3,69.1,35,69.8
	C33.8,70.4,12.6,110.4,2.5,129.5L2.5,129.5z"/>
<linearGradient id="SVGID_00000124159698082289724750000012607182189817291408_" gradientUnits="userSpaceOnUse" x1="-825.9526" y1="664.1686" x2="-824.7035" y2="665.4548" gradientTransform="matrix(158.1624 0 0 -157.9374 130610.7969 105096.5938)">
	<stop  offset="0" style="stop-color:#BD0012"/>
	<stop  offset="0" style="stop-color:#BD0012"/>
	<stop  offset="7.000000e-02" style="stop-color:#FFFFFF"/>
	<stop  offset="0.17" style="stop-color:#FFFFFF"/>
	<stop  offset="0.27" style="stop-color:#C82F1C"/>
	<stop  offset="0.33" style="stop-color:#820C01"/>
	<stop  offset="0.46" style="stop-color:#A31601"/>
	<stop  offset="0.72" style="stop-color:#B31301"/>
	<stop  offset="0.99" style="stop-color:#E82609"/>
	<stop  offset="1" style="stop-color:#E82609"/>
</linearGradient>
<path style="fill:url(#SVGID_00000124159698082289724750000012607182189817291408_);" d="M54.4,54.1c37.9-37.5,86.7-59.7,105.4-40.8
	c18.7,18.9-1.1,64.8-39,102.3s-86.1,60.9-104.8,42C-2.7,138.8,16.6,91.6,54.4,54.1L54.4,54.1z"/>
<linearGradient id="SVGID_00000005244478151530439370000011548115985203353735_" gradientUnits="userSpaceOnUse" x1="-823.8726" y1="663.1183" x2="-824.3409" y2="663.2691" gradientTransform="matrix(127.0738 0 0 -97.4086 104820.0547 64813.4844)">
	<stop  offset="0" style="stop-color:#8C0C01"/>
	<stop  offset="0" style="stop-color:#8C0C01"/>
	<stop  offset="0.54" style="stop-color:#990C00"/>
	<stop  offset="0.99" style="stop-color:#A80D0E"/>
	<stop  offset="1" style="stop-color:#A80D0E"/>
</linearGradient>
<path style="fill:url(#SVGID_00000005244478151530439370000011548115985203353735_);" d="M52.7,253.9l29.4-97.4l97.7,31.4
	C144.5,221,105.2,249,52.7,253.9L52.7,253.9z"/>
<linearGradient id="SVGID_00000112600023208593264500000011973315792843179685_" gradientUnits="userSpaceOnUse" x1="-821.3674" y1="663.4711" x2="-821.9297" y2="663.9197" gradientTransform="matrix(94.0112 0 0 -105.6032 77447.3906 70213.2812)">
	<stop  offset="0" style="stop-color:#7E110B"/>
	<stop  offset="0" style="stop-color:#7E110B"/>
	<stop  offset="0.99" style="stop-color:#9E0C00"/>
	<stop  offset="1" style="stop-color:#9E0C00"/>
</linearGradient>
<path style="fill:url(#SVGID_00000112600023208593264500000011973315792843179685_);" d="M155.1,88.6l25.1,99.3
	c29.5-31,56-64.4,68.9-105.6L155.1,88.6L155.1,88.6z"/>
<linearGradient id="SVGID_00000145017459271474272380000015552079044776097422_" gradientUnits="userSpaceOnUse" x1="-819.6448" y1="662.2216" x2="-819.9752" y2="662.5657" gradientTransform="matrix(79.7019 0 0 -81.7914 65576.3047 54225.668)">
	<stop  offset="0" style="stop-color:#79130D"/>
	<stop  offset="0" style="stop-color:#79130D"/>
	<stop  offset="0.99" style="stop-color:#9E120B"/>
	<stop  offset="1" style="stop-color:#9E120B"/>
</linearGradient>
<path style="fill:url(#SVGID_00000145017459271474272380000015552079044776097422_);" d="M248.8,82.8c10-30.3,12.3-73.7-35-81.8
	l-38.8,21.4L248.8,82.8L248.8,82.8z"/>
<path class="st13" d="M0,202.9c1.4,50,37.4,50.7,52.8,51.2l-35.5-82.9L0,202.9L0,202.9z"/>
<radialGradient id="SVGID_00000146495749780836430250000010559395273086767264_" cx="-821.7554" cy="659.1302" r="0.6957" gradientTransform="matrix(93.1133 0 0 -48.6553 76701.3438 32172.2969)" gradientUnits="userSpaceOnUse">
	<stop  offset="0" style="stop-color:#A80D00"/>
	<stop  offset="0" style="stop-color:#A80D00"/>
	<stop  offset="0.99" style="stop-color:#7E0E08"/>
	<stop  offset="1" style="stop-color:#7E0E08"/>
</radialGradient>
<path style="fill:url(#SVGID_00000146495749780836430250000010559395273086767264_);" d="M155.2,88.8c22.7,13.9,68.3,41.9,69.3,42.4
	c1.4,0.8,19.7-30.8,23.8-48.6L155.2,88.8L155.2,88.8z"/>
<radialGradient id="SVGID_00000038407495359364821830000005245549408667083699_" cx="-822.3357" cy="662.1595" r="0.8839" gradientTransform="matrix(97.4344 0 0 -75.848 80219.0703 50410.9961)" gradientUnits="userSpaceOnUse">
	<stop  offset="0" style="stop-color:#A30C00"/>
	<stop  offset="0" style="stop-color:#A30C00"/>
	<stop  offset="0.99" style="stop-color:#800E08"/>
	<stop  offset="1" style="stop-color:#800E08"/>
</radialGradient>
<path style="fill:url(#SVGID_00000038407495359364821830000005245549408667083699_);" d="M82.1,156.5l39.3,75.8
	c23.2-12.6,41.4-28,58.1-44.4L82.1,156.5L82.1,156.5z"/>
<linearGradient id="SVGID_00000002347021027107687020000014349921495158546817_" gradientUnits="userSpaceOnUse" x1="-809.73" y1="661.9054" x2="-810.2647" y2="662.8026" gradientTransform="matrix(40.1367 0 0 -81.143 32534.1875 53962.8711)">
	<stop  offset="0" style="stop-color:#8B2114"/>
	<stop  offset="0" style="stop-color:#8B2114"/>
	<stop  offset="0.43" style="stop-color:#9E100A"/>
	<stop  offset="0.99" style="stop-color:#B3100C"/>
	<stop  offset="1" style="stop-color:#B3100C"/>
</linearGradient>
<path style="fill:url(#SVGID_00000002347021027107687020000014349921495158546817_);" d="M17.2,171.3l-5.6,66.3
	c10.5,14.4,25,15.6,40.1,14.5C40.8,224.8,18.8,170.2,17.2,171.3L17.2,171.3z"/>
<linearGradient id="SVGID_00000057863315626204487640000009988394790212859828_" gradientUnits="userSpaceOnUse" x1="-820.051" y1="655.0153" x2="-819.435" y2="654.3643" gradientTransform="matrix(78.0993 0 0 -32.6239 64244.3477 21381.7695)">
	<stop  offset="0" style="stop-color:#B31000"/>
	<stop  offset="0" style="stop-color:#B31000"/>
	<stop  offset="0.44" style="stop-color:#910F08"/>
	<stop  offset="0.99" style="stop-color:#791C12"/>
	<stop  offset="1" style="stop-color:#791C12"/>
</linearGradient>
<path style="fill:url(#SVGID_00000057863315626204487640000009988394790212859828_);" d="M174.8,22.7l78.1,11
	C248.8,16,236,4.6,214.1,1L174.8,22.7L174.8,22.7z"/>
</svg>
