<svg id="Capa_1" data-name="Capa 1" xmlns="http://www.w3.org/2000/svg" viewBox="0 0 95.91 72.16"><path d="M84.4,55.3a19.26,19.26,0,0,0-8.7,2,20.16,20.16,0,0,1-2-4.5,11.84,11.84,0,0,1-.2-3.8,33.27,33.27,0,0,1,1.1-4.1c0-.2-.2-1-2.1-1s-3.6.4-3.8.9a15.78,15.78,0,0,0-.8,2.9c-.3,1.8-3.9,8-5.9,11.3a10.11,10.11,0,0,1-1.3-3.3,11.84,11.84,0,0,1-.2-3.8,33.27,33.27,0,0,1,1.1-4.1c0-.2-.2-1-2.1-1s-3.6.4-3.8.9-.4,1.7-.8,2.9-5.1,11.6-6.3,14.3A31.11,31.11,0,0,1,47,68.1c-.4.8,0,.1-.1.1l-.5,1h0c-.3.5-.5.9-.7.9a6.25,6.25,0,0,1,0-3c.7-3.6,2.4-9.3,2.4-9.5s.3-1.1-1.1-1.6a1.77,1.77,0,0,0-2,.3c-.1,0-.2.3-.2.3s1.5-6.4-2.9-6.4c-2.8,0-6.6,3-8.5,5.8-1.2.7-3.8,2-6.5,3.5-1,.6-2.1,1.2-3.1,1.7l-.2-.2C18.5,55.5,8.6,51.4,9,43.7c.2-2.8,1.1-10.2,19.1-19.1,14.7-7.3,26.5-5.3,28.5-.8C59.5,30.2,50.3,42,35,43.7c-5.8.7-8.9-1.6-9.6-2.4s-.9-.9-1.2-.8c-.5.3-.2,1.1,0,1.5a8.88,8.88,0,0,0,5.5,4.3c2.8.9,9.6,1.4,17.9-1.8C56.8,40.9,64.1,31,62,22.7c-2.2-8.5-16.2-11.2-29.5-6.5C24.6,19,16,23.4,9.9,29.2,2.6,36,1.4,42,1.9,44.5c1.7,8.8,13.9,14.6,18.8,18.9-.2.1-.5.3-.7.4C17.5,65,8.2,69.8,5.9,75c-2.6,5.8.4,10,2.4,10.6,6.3,1.7,12.7-1.4,16.2-6.5s3-11.9,1.4-14.9l-.1-.1L27.7,63c1.2-.7,2.5-1.4,3.5-2a26.34,26.34,0,0,0-1.3,6.4c-.3,3.3,1.1,7.6,2.9,9.3a3.38,3.38,0,0,0,2.3.8c2.1,0,3-1.7,4-3.8a58.88,58.88,0,0,0,2.4-5.4s-1.4,7.8,2.4,7.8c1.4,0,2.8-1.8,3.5-2.8h0a.31.31,0,0,1,.1-.2.52.52,0,0,0,.2-.4h0c.6-1,1.8-3.2,3.7-6.9C54,60.9,56.3,55,56.3,55a29.34,29.34,0,0,0,.9,3.9,34.62,34.62,0,0,0,2,4.5l-.9,1.2h0c-.5.6-1,1.2-1.5,1.9a66.4,66.4,0,0,0-4.5,5.6,1.55,1.55,0,0,0,.4,2.1,3.49,3.49,0,0,0,2.4.4,9.4,9.4,0,0,0,3.5-.8,9.8,9.8,0,0,0,3-1.6,6.81,6.81,0,0,0,2.9-6A12.44,12.44,0,0,0,63.4,62a5.58,5.58,0,0,0,.5-.8,74.47,74.47,0,0,0,5.3-9.1,29.34,29.34,0,0,0,.9,3.9,42.07,42.07,0,0,0,1.7,3.9,16.7,16.7,0,0,0-5.1,6.6c-1.1,3.2-.2,4.6,1.4,5a5,5,0,0,0,2.6-.5,10,10,0,0,0,3.2-1.7c1.9-1.4,3.7-3.3,3.6-5.9a13.71,13.71,0,0,0-.8-3.5A18.75,18.75,0,0,1,86,58.8c8.3,1,10,6.2,9.7,8.4A5.93,5.93,0,0,1,93.1,71c-.6.4-.8.5-.7.8s.3.4.8.3a6.41,6.41,0,0,0,4.5-5.8c.3-5.4-4.6-11-13.3-11ZM20,77.1c-2.8,3-6.6,4.2-8.3,3.2s-1.1-5.5,2.3-8.7a40.94,40.94,0,0,1,6.5-4.9c.4-.2,1-.6,1.7-1a.31.31,0,0,1,.2-.1c.1-.1.3-.2.4-.3A11.94,11.94,0,0,1,20,77.1ZM40.2,63.3c-1,2.3-3,8.4-4.2,8s-1.7-4.8-.2-9.3a19.4,19.4,0,0,1,3.3-6c1.5-1.7,3.2-2.3,3.6-1.6C43.1,55.3,40.8,61.9,40.2,63.3Zm16.6,8c-.4.2-.8.4-1,.2s.2-.4.2-.4,2.1-2.2,2.9-3.3c.5-.6,1-1.3,1.6-2.1v.2c.1,2.9-2.5,4.7-3.7,5.4Zm12.9-2.9c-.3-.2-.3-.9.8-3.1a11.33,11.33,0,0,1,2.9-3.7,5,5,0,0,1,.3,1.6A5.77,5.77,0,0,1,69.7,68.4Z" transform="translate(-1.8 -13.91)" fill="#69008e"/></svg>