<svg id="Capa_1" data-name="Capa 1" xmlns="http://www.w3.org/2000/svg" viewBox="0 0 256 256"><polygon points="0 128 0 256 128 256 256 256 256 128 256 0 128 0 0 0 0 128" fill="#69008e"/><path d="M56.61,128.85l-.08,10.48H89.85V234h23.57V139.33h33.32V129.05a97.33,97.33,0,0,0-.29-10.56c-.12-.17-20.39-.25-45-.21l-44.74.13Z" transform="translate(0 0)" fill="#170c18"/><path d="M206.57,118.11a31.85,31.85,0,0,1,16,9.22c2.35,2.52,5.85,7.11,6.13,8.21.08.33-11.05,7.8-17.8,12-.24.16-1.21-.9-2.31-2.52-3.29-4.8-6.75-6.87-12-7.23-7.76-.53-12.76,3.53-12.72,10.32a9.39,9.39,0,0,0,1.1,4.79c1.71,3.54,4.88,5.65,14.83,10,18.33,7.88,26.17,13.08,31.05,20.48,5.44,8.25,6.66,21.41,3,31.21-4.06,10.64-14.14,17.87-28.32,20.27-4.39.77-14.79.65-19.51-.2-10.28-1.83-20-6.91-26-13.57-2.36-2.6-6.95-9.39-6.67-9.88a20.29,20.29,0,0,1,2.36-1.5c1.14-.65,5.45-3.13,9.51-5.49l7.35-4.26,1.55,2.27c2.15,3.29,6.87,7.8,9.71,9.31,8.17,4.3,19.38,3.7,24.91-1.26a11.13,11.13,0,0,0,1.42-14.18c-2-2.85-6.05-5.25-17.59-10.24-13.21-5.69-18.9-9.23-24.1-14.84a33.72,33.72,0,0,1-7-12.8c-1-3.61-1.22-12.67-.45-16.33,2.73-12.76,12.36-21.66,26.25-24.3C191.65,116.69,202.14,117,206.57,118.11Z" transform="translate(0 0)" fill="#170c18"/></svg>