<svg id="Capa_1" data-name="Capa 1" xmlns="http://www.w3.org/2000/svg" viewBox="0 0 94.11 93"><path d="M3.7,35.4s-2.3-1.7.5-3.9l6.4-5.7a2.73,2.73,0,0,1,3.8-.2L73.5,70.3V91.7s0,3.4-4.4,3Z" transform="translate(-2.81 -3.01)" fill="#58017c"/><path d="M18.9,49.3,3.7,63.1s-1.6,1.2,0,3.2l7.1,6.4s1.7,1.8,4.2-.2L31.1,60.3Z" transform="translate(-2.81 -3.01)" fill="#380456"/><path d="M45.7,49.4,73.6,28,73.4,6.7S72.2,2,68.2,4.5L31.1,38.3Z" transform="translate(-2.81 -3.01)" fill="#4b036d"/><path d="M69.1,94.8a3.71,3.71,0,0,0,3.6,1.1L94.5,85.2c2.8-1.9,2.4-4.3,2.4-4.3v-64c0-2.8-2.9-3.8-2.9-3.8L75.1,4c-4.1-2.5-6.8.5-6.8.5S71.8,2,73.5,6.7V91.4a3.29,3.29,0,0,1-.4,1.7c-.5,1-1.6,1.9-4.2,1.5Z" transform="translate(-2.81 -3.01)" fill="#69008e"/></svg>