<svg id="Capa_1" data-name="Capa 1" xmlns="http://www.w3.org/2000/svg" viewBox="0 0 2454.31 2457.39"><path d="M2464.1,381.6,1311.2,2443.2c-23.8,42.6-85,42.8-109.1.5L26.3,381.8C0,335.6,39.5,279.7,91.8,289.1L1246,495.4a64.24,64.24,0,0,0,22.3,0l1130-206C2450.3,279.9,2490,335.3,2464.1,381.6Z" transform="translate(-17.93 -17.9)" fill="#69008e"/><path d="M1795.7,18.5,942.5,185.7a31.39,31.39,0,0,0-25.3,28.9L864.8,1101a31.25,31.25,0,0,0,29.4,33.1,33.14,33.14,0,0,0,8.9-.7l237.5-54.8a31.29,31.29,0,0,1,37.7,36.8L1107.7,1461a31.31,31.31,0,0,0,39.8,36.2l146.7-44.6a31.34,31.34,0,0,1,39.8,36.3l-112,542.8c-7,34,38.1,52.5,57,23.4l12.6-19.4L1986.8,648.2c11.6-23.2-8.4-49.7-33.9-44.8l-244.5,47.2c-23,4.4-42.5-17-36-39.4L1832,58c6.3-22.6-13.3-44-36.3-39.5Z" transform="translate(-17.93 -17.9)" fill="#4c006b"/></svg>