<svg id="Capa_1" data-name="Capa 1" xmlns="http://www.w3.org/2000/svg" viewBox="0 0 95 95"><path d="M8.9,50.5a40.84,40.84,0,0,0,23,36.7L12.4,33.9A41.2,41.2,0,0,0,8.9,50.5Zm68.2-2.1a20.93,20.93,0,0,0-3.4-11.2c-2.1-3.4-4-6.2-4-9.6a7,7,0,0,1,6.8-7.2H77a40.65,40.65,0,0,0-61.4,7.8h2.6c4.3,0,10.9-.5,10.9-.5a1.71,1.71,0,0,1,.3,3.4s-2.2.3-4.7.4L39.5,75.6l8.9-26.7L42,31.4c-2.2-.1-4.3-.4-4.3-.4-2.2-.1-1.9-3.5.3-3.4,0,0,6.7.5,10.7.5,4.3,0,10.9-.5,10.9-.5a1.71,1.71,0,0,1,.3,3.4s-2.2.3-4.7.4L69.9,75.2,74,61.6c1.8-5.6,3.1-9.7,3.1-13.2Z" transform="translate(-2.1 -3)" fill="#69008e"/><path d="M50.3,54.1,38.1,89.6a40.29,40.29,0,0,0,25-.6l-.3-.6ZM85.4,30.9a27.66,27.66,0,0,1,.3,4.2,39.06,39.06,0,0,1-3.1,14.6l-12.4,36A40.84,40.84,0,0,0,90.5,50.5a43.31,43.31,0,0,0-5.1-19.6Z" transform="translate(-2.1 -3)" fill="#69008e"/><path d="M49.6,3A47.5,47.5,0,1,0,97.1,50.5,47.54,47.54,0,0,0,49.6,3Zm0,92.8A45.3,45.3,0,1,1,94.9,50.5,45.32,45.32,0,0,1,49.6,95.8Z" transform="translate(-2.1 -3)" fill="#69008e"/></svg>